<svg xmlns="http://www.w3.org/2000/svg" viewBox="0 0 64 64" role="img" aria-label="Astro favicon">
  <defs>
    <linearGradient id="ring" x1="10" y1="10" x2="54" y2="54" gradientUnits="userSpaceOnUse">
      <stop stop-color="#ffd89b"/>
      <stop offset="0.52" stop-color="#f08bb4"/>
      <stop offset="1" stop-color="#a78bfa"/>
    </linearGradient>
    <linearGradient id="moon" x1="18" y1="18" x2="44" y2="46" gradientUnits="userSpaceOnUse">
      <stop stop-color="#fff5db"/>
      <stop offset="1" stop-color="#ffcf9c"/>
    </linearGradient>
    <filter id="glow" x="-40%" y="-40%" width="180%" height="180%">
      <feGaussianBlur stdDeviation="2.1" result="blur"/>
      <feMerge>
        <feMergeNode in="blur"/>
        <feMergeNode in="SourceGraphic"/>
      </feMerge>
    </filter>
    <linearGradient id="panel" x1="8" y1="8" x2="56" y2="56" gradientUnits="userSpaceOnUse">
      <stop stop-color="#ffffff" stop-opacity="0.12"/>
      <stop offset="1" stop-color="#12091f" stop-opacity="0.28"/>
    </linearGradient>
  </defs>
  <rect x="6" y="6" width="52" height="52" rx="18" fill="#12091f"/>
  <rect x="6" y="6" width="52" height="52" rx="18" fill="url(#panel)"/>
  <circle cx="32" cy="32" r="18" fill="none" stroke="url(#ring)" stroke-width="3" stroke-linecap="round" stroke-dasharray="82 28" transform="rotate(-28 32 32)" filter="url(#glow)"/>
  <path d="M34 16C26 16 20 22 20 30C20 38 26 46 34 46C38 46 42 45 44 41C39 40 35 35 35 30C35 25 39 20 44 19C42 17 38 16 34 16Z" fill="url(#moon)"/>
  <path d="M21 42C25 38 31 35 39 35" fill="none" stroke="#fff8f1" stroke-opacity="0.82" stroke-width="1.4" stroke-linecap="round"/>
  <circle cx="41" cy="22" r="2.8" fill="#fff8f1"/>
  <circle cx="46" cy="17" r="1.5" fill="#fff1c6"/>
  <circle cx="47" cy="40" r="3.2" fill="#ff7a90"/>
</svg>
